<svg id="Capa_1" data-name="Capa 1" xmlns="http://www.w3.org/2000/svg" viewBox="0 0 97.41 25.23"><title>santander-red</title><rect width="97.41" height="25.23" style="fill:#e42313"/><path d="M11.25,6.82a3.44,3.44,0,0,0-.42-1.54L8.36,1.06a4,4,0,0,1-.4-1l-.1.18a3.37,3.37,0,0,0,0,3.39L9.86,7a3.37,3.37,0,0,1,0,3.39l-.11.18a3.59,3.59,0,0,0-.39-1L7.58,6.49l-1.15-2a3.59,3.59,0,0,1-.39-1l-.11.18a3.42,3.42,0,0,0,0,3.39h0l2,3.4a3.42,3.42,0,0,1,0,3.39L7.82,14a3.59,3.59,0,0,0-.39-1L5,8.78A3.73,3.73,0,0,1,4.5,6.93C1.89,7.6.07,9.07.07,10.75.07,13.1,3.57,15,7.89,15s7.82-1.89,7.82-4.24C15.68,9,13.89,7.5,11.25,6.82Zm7.39,7.24a5.1,5.1,0,0,1,.28-1.5,6.69,6.69,0,0,0,2.68.58c1.36,0,2.14-.43,2.14-1.32s-.57-1.25-1.91-1.86l-.75-.29c-1.4-.6-2.32-1.39-2.32-2.92C18.76,5.07,19.93,4,22.29,4A8.13,8.13,0,0,1,25,4.43a5.56,5.56,0,0,1-.29,1.46,7.72,7.72,0,0,0-2.43-.43C21,5.46,20.4,6,20.4,6.75S21,8,22,8.39l.79.32c1.86.78,2.64,1.64,2.64,3.07,0,1.68-1.28,2.86-3.78,2.86A6.8,6.8,0,0,1,18.64,14.06Zm14.67-7v7.36H31.83l-.07-.9a2.28,2.28,0,0,1-2.07,1.07c-1.93,0-3.25-1.42-3.25-3.89a3.74,3.74,0,0,1,4.09-4.1A9.75,9.75,0,0,1,33.31,7.06Zm-1.6,5.68V8.06a5.82,5.82,0,0,0-1.18,0c-1.68,0-2.47,1-2.47,2.68s.61,2.57,2,2.57a2.82,2.82,0,0,0,1.65-.6Zm9.88-3.25v4.93H40V9.74C40,8.57,39.6,8,38,8a9.36,9.36,0,0,0-1.29.11v6.25H35.1V7.06A13.73,13.73,0,0,1,38,6.63c2.72,0,3.57,1,3.57,2.83Zm4.5,3.75A3.14,3.14,0,0,0,47.34,13c0,.46-.1.91-.18,1.36a3.48,3.48,0,0,1-1.35.25,2.25,2.25,0,0,1-2.57-1.88,2,2,0,0,1,0-.69V4.35a5.08,5.08,0,0,1,1.59-.29V6.85H47.4a12.83,12.83,0,0,1-.14,1.39H44.83v3.61c0,1,.48,1.36,1.26,1.36Zm8.68-6.18v7.36h-1.5l-.07-.9a2.26,2.26,0,0,1-2.07,1c-1.93,0-3.25-1.42-3.25-3.89A3.72,3.72,0,0,1,52,6.6,9.76,9.76,0,0,1,54.77,7.06Zm-1.64,5.65V8.06a5.82,5.82,0,0,0-1.18,0c-1.68,0-2.47,1-2.47,2.68s.61,2.57,2,2.57A2.82,2.82,0,0,0,53.13,12.71Zm9.92-3.25v4.93H61.41V9.74c0-1.17-.39-1.71-2-1.71a7.81,7.81,0,0,0-1.28.11v6.25H56.52V7.06a13.82,13.82,0,0,1,2.93-.43C62.16,6.64,63.05,7.67,63.05,9.46Zm8.18-5.4V14.39h-1.5l-.08-.93a2.22,2.22,0,0,1-2.1,1.1c-1.93,0-3.25-1.42-3.25-3.89A3.73,3.73,0,0,1,68.41,6.6a7,7,0,0,1,1.21.11V4.28A6.25,6.25,0,0,1,71.23,4.06Zm-1.61,8.61V8.17a8,8,0,0,0-1.29-.11c-1.6,0-2.35,1-2.35,2.68,0,1.5.61,2.57,2,2.57a3,3,0,0,0,1.64-.6Zm9.75-1.47H74.19a2.11,2.11,0,0,0,2.26,2l.17,0a5.85,5.85,0,0,0,2.57-.57c-.07.43-.15,1-.25,1.46a5.68,5.68,0,0,1-2.4.47c-2.71,0-4-1.5-4-4,0-2.18,1-3.93,3.57-3.93a3.06,3.06,0,0,1,3.32,2.79,2.71,2.71,0,0,1,0,.57,7.3,7.3,0,0,1-.06,1.32ZM74.19,9.85h3.64c0-1.22-.64-1.93-1.75-1.93s-1.78.72-1.89,2ZM85,6.67a7.2,7.2,0,0,1-.14,1.39c-.39,0-.75-.07-1.21-.07a6.3,6.3,0,0,0-1.18.07v6.29H80.9V7.06a9.18,9.18,0,0,1,2.75-.43A9.74,9.74,0,0,1,85,6.71Z" transform="translate(5.87 4.33)" style="fill:#fff"/></svg>